<svg width="24" height="24" fill="#c7c7c7" xmlns="http://www.w3.org/2000/svg">
  <path d="M12 3a9 9 0 11-8.963 8.182.75.75 0 011.494.135 7.46 7.46 0 002.166 5.986A7.46 7.46 0 0012 19.5 7.5 7.5 0 105.997 7.502h2.756a.75.75 0 01.102 1.493l-.102.007H4.25a.75.75 0 01-.743-.648L3.5 8.252v-4.5a.75.75 0 011.493-.102L5 3.752l-.001 2.591A8.986 8.986 0 0112 3zm-.75 4a.75.75 0 01.743.648L12 7.75V12h2.25a.75.75 0 01.102 1.493l-.102.007h-3a.75.75 0 01-.743-.648l-.007-.102v-5a.75.75 0 01.75-.75z" fill="#212121" fill-rule="nonzero"/>
</svg>